<?xml version="1.0" standalone="no"?>
<!DOCTYPE svg PUBLIC "-//W3C//DTD SVG 20010904//EN"
 "http://www.w3.org/TR/2001/REC-SVG-20010904/DTD/svg10.dtd">
<svg version="1.0" xmlns="http://www.w3.org/2000/svg"
 width="705.000000pt" height="134.000000pt" viewBox="0 0 705.000000 134.000000"
 preserveAspectRatio="xMidYMid meet">

<g transform="translate(0.000000,134.000000) scale(0.100000,-0.100000)"
fill="#000000" stroke="none">
<path d="M0 1305 l0 -35 240 0 240 0 0 -50 0 -50 50 0 50 0 0 -50 0 -50 -290
0 -290 0 0 -175 0 -175 240 0 240 0 0 -44 0 -45 48 -3 47 -3 3 -52 3 -53 -290
0 -291 0 0 -225 0 -225 325 0 325 0 0 90 0 90 -290 0 -290 0 0 100 0 100 290
0 290 0 0 175 0 175 -290 0 -290 0 0 50 0 50 50 0 50 0 0 50 0 50 240 0 240 0
0 170 0 170 -325 0 -325 0 0 -35z"/>
<path d="M6402 1198 c-5 -7 -13 -27 -16 -45 -6 -26 -14 -33 -44 -41 -34 -8
-40 -6 -70 22 l-33 31 -55 -29 c-53 -28 -56 -31 -51 -60 3 -17 8 -38 11 -46 3
-9 -7 -24 -24 -37 -26 -22 -30 -22 -64 -8 -19 8 -38 15 -40 15 -3 0 -21 -23
-41 -52 l-35 -52 31 -32 c30 -31 30 -34 18 -67 -12 -35 -31 -47 -76 -47 -25 0
-37 -40 -31 -100 3 -30 7 -35 41 -43 20 -5 37 -15 37 -22 0 -7 3 -25 6 -41 5
-25 1 -31 -30 -48 -20 -11 -36 -24 -36 -30 0 -6 11 -35 25 -64 l24 -52 41 6
c38 6 43 4 68 -26 l27 -32 53 42 c56 45 59 51 38 69 -7 6 -26 39 -42 74 -25
53 -29 74 -29 147 0 72 4 94 29 147 31 68 98 138 162 171 135 68 301 43 408
-61 125 -123 149 -296 61 -442 l-35 -57 32 -26 c80 -68 74 -66 99 -31 20 29
25 30 64 25 l42 -7 22 50 c28 65 27 76 -9 98 -50 29 -39 88 22 109 32 11 33
12 30 65 -3 74 -6 79 -47 79 -32 0 -38 4 -51 36 -15 36 -15 37 15 68 l31 32
-35 52 c-20 29 -38 52 -41 52 -2 0 -20 -6 -38 -14 -33 -14 -35 -13 -60 13 -22
23 -26 36 -24 71 3 41 1 44 -45 73 l-48 30 -33 -32 c-32 -31 -34 -31 -71 -19
-33 11 -41 19 -48 50 -6 24 -15 38 -30 42 -38 10 -94 7 -105 -6z m118 -55 c13
-39 18 -43 63 -54 47 -11 49 -10 78 17 l30 29 37 -20 c38 -21 41 -32 29 -85
-5 -20 1 -31 33 -58 38 -32 39 -33 74 -18 l36 15 27 -40 26 -40 -28 -29 c-27
-28 -27 -30 -14 -74 13 -45 27 -56 77 -56 12 0 22 -6 22 -12 0 -7 3 -29 6 -49
6 -34 5 -36 -34 -47 -42 -13 -52 -29 -52 -87 0 -24 7 -35 30 -48 35 -21 35
-23 14 -77 -12 -29 -21 -39 -33 -36 -47 14 -71 17 -71 10 0 -5 -9 -20 -19 -33
l-18 -23 -37 32 -36 32 25 44 c86 146 61 338 -59 458 -87 88 -223 131 -333
107 -126 -28 -228 -108 -282 -221 -22 -47 -26 -69 -26 -150 0 -90 2 -99 38
-170 l38 -75 -33 -27 c-18 -16 -35 -28 -39 -28 -4 0 -17 13 -28 29 -19 27 -24
28 -58 20 -43 -9 -46 -8 -66 43 l-16 38 32 22 c18 12 34 23 36 24 1 2 0 25 -4
53 -7 48 -9 51 -46 62 -36 11 -39 15 -39 48 0 47 8 56 54 67 35 8 41 15 53 51
14 41 13 44 -13 78 l-27 35 27 40 26 40 39 -19 38 -20 38 39 c36 37 37 39 25
75 -7 20 -10 38 -8 39 1 1 20 13 41 26 l38 23 32 -31 c32 -31 33 -31 82 -18
36 9 51 18 54 32 11 57 19 65 63 62 41 -3 44 -5 58 -45z"/>
<path d="M6396 1061 c-4 -7 -5 -15 -2 -18 9 -9 36 5 36 19 0 10 -2 10 -9 -1
-7 -11 -9 -11 -13 0 -3 10 -6 10 -12 0z"/>
<path d="M6490 1061 c0 -6 4 -13 10 -16 6 -3 7 1 4 9 -7 18 -14 21 -14 7z"/>
<path d="M6340 1045 c0 -9 -6 -12 -17 -9 -15 5 -16 4 -3 -5 11 -8 18 -7 26 5
9 11 13 12 16 3 3 -9 6 -9 10 2 4 10 -1 15 -13 16 -10 1 -19 -5 -19 -12z"/>
<path d="M6560 1045 c0 -8 2 -15 4 -15 2 0 6 7 10 15 3 8 1 15 -4 15 -6 0 -10
-7 -10 -15z"/>
<path d="M6535 1040 c-3 -5 -1 -10 4 -10 6 0 11 5 11 10 0 6 -2 10 -4 10 -3 0
-8 -4 -11 -10z"/>
<path d="M6240 1005 c7 -9 15 -13 17 -11 7 7 -7 26 -19 26 -6 0 -6 -6 2 -15z"/>
<path d="M6197 990 c-7 -11 -17 -17 -22 -12 -5 4 -5 1 -1 -6 4 -7 12 -10 17
-7 5 4 9 1 9 -4 0 -6 5 -11 12 -11 9 0 9 3 0 12 -17 17 -15 29 3 22 8 -4 15
-1 15 4 0 21 -19 22 -33 2z"/>
<path d="M6685 989 c-11 -17 1 -21 15 -4 8 9 8 15 2 15 -6 0 -14 -5 -17 -11z"/>
<path d="M6728 963 c7 -3 16 -2 19 1 4 3 -2 6 -13 5 -11 0 -14 -3 -6 -6z"/>
<path d="M6130 934 c-10 -12 -11 -17 -1 -27 10 -9 11 -8 5 7 -5 13 -4 17 4 12
6 -3 13 -2 16 3 11 17 -11 21 -24 5z"/>
<path d="M6743 933 c0 -9 4 -10 14 -2 7 6 13 12 13 14 0 1 -6 2 -13 2 -8 0
-14 -6 -14 -14z"/>
<path d="M6785 910 c-3 -5 -1 -10 4 -10 6 0 11 5 11 10 0 6 -2 10 -4 10 -3 0
-8 -4 -11 -10z"/>
<path d="M6096 884 c-24 -23 -38 -53 -31 -64 12 -19 24 -10 19 15 -3 20 -1 23
13 18 10 -3 15 -3 11 2 -4 4 0 13 9 20 10 8 12 14 5 19 -6 3 -18 -1 -26 -10z"/>
<path d="M6795 880 c-3 -6 1 -7 9 -4 18 7 21 14 7 14 -6 0 -13 -4 -16 -10z"/>
<path d="M6832 818 c3 -15 18 -28 33 -28 6 0 4 4 -3 9 -8 4 -13 12 -12 17 1 5
-3 10 -10 12 -6 2 -9 -2 -8 -10z"/>
<path d="M6046 775 c5 -11 2 -14 -11 -9 -15 6 -16 4 -5 -15 6 -13 14 -20 18
-17 11 11 12 45 2 51 -6 3 -7 -1 -4 -10z"/>
<path d="M6853 760 c-1 -11 2 -22 7 -25 5 -3 6 -13 3 -22 -6 -15 -5 -16 9 -3
14 13 14 16 2 23 -9 5 -12 16 -9 28 4 10 3 19 -2 19 -5 0 -9 -9 -10 -20z"/>
<path d="M6020 715 c0 -8 4 -15 10 -15 5 0 7 7 4 15 -4 8 -8 15 -10 15 -2 0
-4 -7 -4 -15z"/>
<path d="M6018 683 c7 -3 16 -2 19 1 4 3 -2 6 -13 5 -11 0 -14 -3 -6 -6z"/>
<path d="M6018 663 c6 -2 18 -2 25 0 6 3 1 5 -13 5 -14 0 -19 -2 -12 -5z"/>
<path d="M6020 630 c0 -5 5 -10 11 -10 5 0 7 5 4 10 -3 6 -8 10 -11 10 -2 0
-4 -4 -4 -10z"/>
<path d="M6880 610 c-9 -6 -10 -10 -3 -10 6 0 15 5 18 10 8 12 4 12 -15 0z"/>
<path d="M6018 603 c6 -2 18 -2 25 0 6 3 1 5 -13 5 -14 0 -19 -2 -12 -5z"/>
<path d="M6025 580 c-3 -5 1 -10 9 -10 9 0 16 5 16 10 0 6 -4 10 -9 10 -6 0
-13 -4 -16 -10z"/>
<path d="M6880 560 c0 -5 5 -10 10 -10 6 0 10 5 10 10 0 6 -4 10 -10 10 -5 0
-10 -4 -10 -10z"/>
<path d="M6038 533 c7 -3 16 -2 19 1 4 3 -2 6 -13 5 -11 0 -14 -3 -6 -6z"/>
<path d="M6027 493 c-4 -3 -7 -11 -7 -17 0 -6 5 -4 10 4 5 8 10 10 10 4 0 -7
7 -14 15 -18 16 -6 16 14 0 26 -13 10 -20 10 -28 1z"/>
<path d="M6857 493 c-10 -10 -8 -23 4 -23 5 0 8 4 5 9 -4 5 0 12 6 14 7 3 8 6
2 6 -6 1 -14 -2 -17 -6z"/>
<path d="M6830 449 c0 -5 5 -9 10 -9 6 0 12 0 15 0 14 0 8 13 -7 16 -10 1 -18
-2 -18 -7z"/>
<path d="M6065 440 c3 -5 8 -10 11 -10 2 0 4 5 4 10 0 6 -5 10 -11 10 -5 0 -7
-4 -4 -10z"/>
<path d="M6825 420 c-3 -5 1 -10 10 -10 9 0 13 5 10 10 -3 6 -8 10 -10 10 -2
0 -7 -4 -10 -10z"/>
<path d="M6090 400 c0 -5 5 -10 11 -10 5 0 7 5 4 10 -3 6 -8 10 -11 10 -2 0
-4 -4 -4 -10z"/>
<path d="M6818 393 c7 -3 16 -2 19 1 4 3 -2 6 -13 5 -11 0 -14 -3 -6 -6z"/>
<path d="M2069 1011 c-24 -24 -29 -38 -29 -76 0 -72 30 -114 82 -115 38 0 58
-25 58 -70 0 -31 -5 -43 -25 -56 -23 -15 -27 -15 -50 0 -14 9 -25 25 -25 36 0
13 -7 20 -20 20 -28 0 -26 -42 4 -77 19 -22 32 -28 66 -28 59 0 90 37 90 106
0 42 -5 55 -29 80 -17 17 -40 29 -55 29 -35 0 -56 25 -56 69 0 48 28 76 65 67
18 -5 27 -15 32 -36 6 -35 43 -44 43 -10 0 81 -93 119 -151 61z"/>
<path d="M3109 1011 c-24 -24 -29 -38 -29 -76 0 -72 30 -114 82 -115 36 0 58
-25 58 -66 0 -31 -27 -74 -48 -74 -18 0 -52 33 -52 51 0 12 -7 19 -20 19 -28
0 -26 -42 4 -77 19 -22 32 -28 66 -28 59 0 90 37 90 106 0 42 -5 55 -29 80
-17 17 -40 29 -55 29 -36 0 -56 25 -56 70 0 42 20 70 50 70 24 0 50 -26 50
-51 0 -12 7 -19 20 -19 31 0 26 46 -9 81 -40 39 -82 39 -122 0z"/>
<path d="M4685 1028 c-30 -16 -45 -39 -45 -69 0 -23 -5 -28 -27 -31 -17 -2
-29 -10 -31 -20 -3 -14 3 -18 27 -18 l31 0 0 -120 c0 -100 3 -120 15 -120 13
0 15 20 15 120 l0 120 35 0 c28 0 35 4 35 20 0 16 -7 20 -36 20 -32 0 -35 2
-29 23 8 25 32 47 52 47 7 0 13 9 13 20 0 22 -23 26 -55 8z"/>
<path d="M960 840 l0 -190 59 0 c49 0 65 4 88 24 l28 24 0 140 c0 135 -1 141
-24 166 -21 23 -33 26 -88 26 l-63 0 0 -190z m124 128 c12 -17 16 -49 16 -128
0 -125 -11 -150 -66 -150 l-34 0 0 150 0 150 34 0 c25 0 39 -7 50 -22z"/>
<path d="M2650 840 c0 -183 1 -190 20 -190 19 0 20 7 20 103 0 118 9 141 55
135 l30 -3 3 -117 c2 -110 4 -118 22 -118 19 0 20 7 20 118 0 149 -9 167 -81
160 l-49 -5 0 53 c0 47 -2 54 -20 54 -19 0 -20 -7 -20 -190z"/>
<path d="M3530 840 c0 -182 1 -190 20 -190 18 0 20 8 22 118 l3 117 30 3 c46
6 55 -17 55 -135 0 -98 1 -103 21 -103 20 0 21 4 17 119 -3 102 -6 122 -23
141 -16 18 -28 21 -62 17 l-43 -5 0 54 c0 47 -2 54 -20 54 -19 0 -20 -7 -20
-190z"/>
<path d="M4190 840 c0 -183 1 -190 20 -190 19 0 20 7 20 190 0 183 -1 190 -20
190 -19 0 -20 -7 -20 -190z"/>
<path d="M1847 1013 c-4 -3 -7 -17 -7 -30 0 -16 6 -23 20 -23 16 0 20 7 20 30
0 28 -17 40 -33 23z"/>
<path d="M2887 1013 c-4 -3 -7 -17 -7 -30 0 -16 6 -23 20 -23 16 0 20 7 20 30
0 28 -17 40 -33 23z"/>
<path d="M2510 965 c0 -31 -3 -35 -25 -35 -18 0 -25 -5 -25 -20 0 -14 7 -20
24 -20 24 0 24 -2 28 -101 3 -92 5 -103 27 -120 31 -25 84 -26 79 -2 -2 10
-12 19 -23 21 -40 8 -45 21 -45 113 l0 89 36 0 c28 0 35 3 32 18 -2 11 -14 18
-36 20 -29 3 -32 6 -32 38 0 27 -4 34 -20 34 -16 0 -20 -7 -20 -35z"/>
<path d="M1220 910 c-27 -27 -33 -57 -28 -144 2 -53 8 -80 21 -94 41 -45 126
-29 146 28 14 42 14 40 -8 40 -11 0 -23 -9 -26 -20 -19 -59 -95 -39 -95 25 l0
34 68 3 67 3 -1 47 c0 63 -31 98 -86 98 -25 0 -45 -7 -58 -20z m100 -39 c21
-41 13 -51 -40 -51 -39 0 -50 4 -50 16 0 32 20 54 50 54 19 0 33 -7 40 -19z"/>
<path d="M1437 918 c-24 -19 -38 -64 -27 -92 11 -30 47 -56 77 -56 22 0 53
-24 53 -41 0 -12 -37 -49 -50 -49 -12 0 -46 33 -52 51 -2 7 -11 10 -21 6 -27
-10 -2 -66 37 -82 62 -26 117 6 119 69 1 45 -25 75 -75 82 -45 8 -64 33 -48
64 16 30 67 27 82 -5 11 -24 28 -32 41 -19 10 10 -14 64 -33 74 -26 14 -83 12
-103 -2z"/>
<path d="M1652 923 c-13 -5 -42 -55 -42 -73 0 -21 37 -9 48 15 24 52 104 19
87 -35 -4 -13 -21 -24 -50 -31 -24 -6 -53 -20 -64 -30 -27 -25 -28 -80 -2
-103 23 -21 85 -24 106 -6 11 9 15 9 15 1 0 -6 9 -11 21 -11 20 0 21 4 17 114
-3 105 -5 117 -27 140 -24 25 -73 34 -109 19z m98 -172 c0 -16 -9 -39 -19 -52
-16 -20 -23 -22 -47 -14 -21 8 -30 18 -32 38 -2 15 -2 27 0 27 2 0 21 7 43 15
54 19 55 19 55 -14z"/>
<path d="M1847 923 c-4 -3 -7 -66 -7 -140 0 -126 1 -133 20 -133 19 0 20 7 20
140 0 110 -3 140 -13 140 -8 0 -17 -3 -20 -7z"/>
<path d="M2295 905 c-23 -22 -25 -32 -25 -114 0 -79 3 -93 23 -116 32 -38 92
-38 124 0 28 32 30 65 4 65 -12 0 -21 -9 -25 -24 -7 -29 -37 -41 -66 -26 -15
8 -20 21 -20 50 l0 40 65 0 65 0 0 50 c0 65 -30 100 -85 100 -25 0 -44 -8 -60
-25z m93 -27 c7 -7 12 -22 12 -35 0 -21 -5 -23 -45 -23 -40 0 -45 2 -45 23 0
29 18 47 45 47 12 0 26 -5 33 -12z"/>
<path d="M2887 923 c-4 -3 -7 -66 -7 -140 0 -126 1 -133 20 -133 19 0 20 7 20
140 0 110 -3 140 -13 140 -8 0 -17 -3 -20 -7z"/>
<path d="M3335 905 c-23 -22 -25 -32 -25 -114 0 -79 3 -93 23 -116 32 -38 92
-38 124 0 28 32 30 65 4 65 -12 0 -21 -9 -25 -24 -7 -29 -37 -41 -66 -26 -18
9 -20 20 -20 93 0 45 4 88 9 95 13 21 64 11 76 -15 12 -29 45 -31 45 -3 0 34
-44 70 -85 70 -25 0 -44 -8 -60 -25z"/>
<path d="M3776 909 c-25 -19 -26 -25 -26 -114 0 -83 3 -97 23 -120 32 -38 92
-38 124 0 20 23 23 37 23 116 0 82 -2 92 -25 114 -30 31 -82 33 -119 4z m92
-31 c19 -19 16 -163 -4 -182 -18 -19 -28 -20 -55 -6 -16 9 -19 22 -19 90 0 43
3 85 6 94 7 19 55 21 72 4z"/>
<path d="M3996 909 c-25 -20 -26 -25 -26 -118 0 -90 2 -99 24 -120 35 -33 93
-31 123 4 20 23 23 37 23 116 0 82 -2 92 -25 114 -30 31 -82 33 -119 4z m92
-31 c19 -19 16 -163 -4 -182 -18 -19 -28 -20 -55 -6 -16 9 -19 22 -19 90 0 43
3 85 6 94 7 19 55 21 72 4z"/>
<path d="M4415 905 c-23 -22 -25 -32 -25 -114 0 -79 3 -93 23 -116 30 -35 88
-37 123 -4 22 21 24 30 24 114 0 78 -3 96 -21 119 -28 36 -89 37 -124 1z m103
-112 c2 -83 1 -93 -17 -102 -21 -11 -51 -5 -63 13 -13 19 -9 161 4 174 7 7 26
12 43 10 l30 -3 3 -92z"/>
<path d="M6442 914 c-6 -11 -11 -13 -16 -5 -12 19 -46 13 -46 -9 0 -17 -4 -18
-25 -10 -21 8 -25 7 -25 -10 0 -17 -5 -19 -26 -14 -24 6 -25 5 -15 -15 10 -18
9 -21 -9 -21 -11 0 -20 -2 -20 -5 0 -16 43 -87 56 -92 12 -5 11 -10 -8 -30
l-23 -25 25 -20 c18 -15 34 -19 60 -15 49 6 71 -12 68 -54 -3 -30 -7 -35 -38
-40 l-35 -6 43 -2 c42 -1 42 -1 42 -38 l0 -38 -90 -1 c-82 -2 -89 0 -80 15 5
10 16 23 24 31 9 7 16 17 16 23 0 5 -15 -10 -34 -34 -27 -33 -32 -47 -25 -61
5 -10 6 -19 2 -20 -24 -5 197 -13 283 -9 l101 3 -2 30 c-1 16 -7 34 -14 41
-10 9 -11 8 -6 -5 7 -16 0 -17 -71 -12 -85 6 -89 -9 -6 -22 57 -9 53 -26 -5
-22 -27 2 -47 8 -46 13 1 6 -7 13 -18 17 -26 10 -28 88 -1 89 10 0 12 3 5 6
-7 2 -13 20 -13 38 0 42 21 56 76 48 30 -4 45 0 64 15 l24 19 -29 25 -29 25
42 51 c34 40 39 51 26 56 -9 3 -20 3 -26 0 -6 -4 -8 1 -3 15 5 17 2 21 -14 21
-13 0 -21 6 -21 16 0 11 -6 15 -20 11 -15 -4 -20 0 -20 14 0 22 -4 23 -32 8
-17 -9 -23 -8 -30 5 -11 20 -25 20 -36 0z m-22 -19 c11 -13 14 -13 26 2 18 26
35 5 41 -51 7 -61 -3 -96 -27 -96 -22 0 -40 51 -34 96 4 29 4 29 -6 4 -11 -25
-10 -48 5 -83 5 -13 3 -16 -8 -11 -25 9 -39 58 -32 108 8 49 15 55 35 31z
m100 -116 c-7 -11 -9 -23 -6 -26 9 -9 26 45 26 82 0 20 6 35 15 39 20 7 16
-35 -10 -109 -6 -20 -6 -20 6 0 7 10 15 33 19 50 3 17 13 31 23 33 15 3 15 1
1 -35 -26 -63 -40 -73 -94 -64 -12 2 -1 144 12 152 17 11 24 -91 8 -122z
m-150 48 c3 -25 14 -55 24 -66 27 -30 4 -26 -23 3 -28 29 -44 122 -20 114 8
-3 16 -24 19 -51z m-40 4 c0 -9 8 -33 18 -52 l18 -36 -28 -1 c-23 -1 -32 6
-48 39 -17 32 -18 39 -5 39 8 0 21 -16 29 -35 8 -19 17 -35 20 -35 3 0 -1 15
-8 33 -26 63 -29 77 -12 71 9 -3 16 -14 16 -23z m286 -49 c-15 -29 -44 -58
-50 -51 -6 7 44 79 54 79 6 0 4 -12 -4 -28z m-128 -58 c12 -8 22 -24 22 -35 0
-16 -7 -19 -50 -19 -43 0 -50 3 -50 19 0 17 33 51 50 51 3 0 16 -7 28 -16z
m-88 -8 c0 -20 -20 -34 -55 -38 -38 -4 -41 21 -5 39 33 17 60 16 60 -1z m187
-18 c30 -28 29 -38 -5 -38 -31 0 -56 16 -65 43 -9 26 41 23 70 -5z m-217 -38
c0 -5 -4 -10 -10 -10 -5 0 -10 5 -10 10 0 6 5 10 10 10 6 0 10 -4 10 -10z
m110 -12 c0 -4 -9 -8 -20 -8 -11 0 -20 4 -20 8 0 4 9 8 20 8 11 0 20 -4 20 -8z
m-21 -70 c0 -35 -2 -39 -9 -21 -8 19 -3 63 6 63 2 0 4 -19 3 -42z m-104 -138
c-3 -5 12 -3 34 5 30 10 40 11 38 2 -1 -7 -6 -15 -12 -19 -14 -11 -67 -9 -85
2 -13 8 -12 10 3 10 11 0 15 4 11 12 -4 7 -3 8 5 4 6 -4 9 -11 6 -16z m115
-16 c0 -8 -7 -14 -15 -14 -15 0 -21 21 -9 33 10 9 24 -2 24 -19z"/>
<path d="M6575 533 c11 -3 25 -13 33 -22 11 -14 12 -13 2 7 -7 14 -19 22 -33
21 -20 -1 -20 -2 -2 -6z"/>
<path d="M960 290 l0 -190 75 0 c68 0 75 2 75 20 0 18 -7 20 -55 20 l-55 0 0
65 0 65 50 0 c43 0 50 3 50 20 0 17 -7 20 -50 20 l-51 0 3 63 3 62 53 3 c44 3
52 6 52 23 0 17 -7 19 -75 19 l-75 0 0 -190z"/>
<path d="M3500 290 c0 -183 1 -190 20 -190 19 0 20 7 20 104 0 82 3 108 16
120 18 19 28 20 55 6 17 -10 19 -22 19 -120 0 -103 1 -110 20 -110 19 0 20 7
20 115 0 110 -1 117 -25 140 -26 27 -54 31 -86 15 -18 -10 -19 -7 -19 50 0 53
-2 60 -20 60 -19 0 -20 -7 -20 -190z"/>
<path d="M3730 430 c0 -23 4 -30 20 -30 16 0 20 7 20 30 0 23 -4 30 -20 30
-16 0 -20 -7 -20 -30z"/>
<path d="M1410 405 c0 -31 -3 -35 -25 -35 -18 0 -25 -5 -25 -20 0 -15 7 -20
25 -20 25 0 25 -1 25 -89 0 -49 3 -97 6 -106 7 -18 54 -45 79 -45 27 0 16 35
-15 47 l-30 11 0 91 0 91 30 0 c23 0 30 4 30 20 0 16 -7 20 -30 20 -28 0 -30
3 -30 35 0 28 -4 35 -20 35 -16 0 -20 -7 -20 -35z"/>
<path d="M1230 371 c-8 -6 -27 -7 -42 -4 l-28 6 0 -137 c0 -129 1 -136 20
-136 19 0 20 7 20 104 0 82 3 108 16 120 18 19 28 20 55 6 17 -10 19 -22 19
-120 0 -103 1 -110 20 -110 19 0 20 7 20 115 0 110 -1 117 -25 140 -25 26 -50
31 -75 16z"/>
<path d="M1725 368 c-38 -22 -44 -41 -45 -136 0 -86 2 -95 25 -117 16 -17 35
-25 60 -25 41 0 85 36 85 70 0 28 -33 26 -45 -2 -11 -26 -49 -35 -71 -18 -8 7
-14 30 -14 51 l0 39 65 0 65 0 0 46 c0 76 -67 125 -125 92z m66 -38 c12 -7 19
-21 19 -40 0 -29 -2 -30 -45 -30 -43 0 -45 1 -45 28 0 46 29 64 71 42z"/>
<path d="M1970 371 c-8 -6 -27 -7 -42 -4 l-28 6 2 -184 c3 -166 5 -184 21
-187 14 -3 17 5 17 51 l0 55 28 -10 c78 -30 116 25 110 155 -3 72 -6 81 -31
103 -30 25 -53 30 -77 15z m52 -48 c14 -13 18 -31 18 -85 0 -81 -11 -108 -45
-108 -41 0 -55 25 -55 98 0 98 35 138 82 95z"/>
<path d="M2305 368 c-38 -22 -44 -41 -45 -136 0 -86 2 -95 25 -117 16 -17 35
-25 60 -25 41 0 85 36 85 70 0 28 -33 26 -45 -2 -11 -26 -49 -35 -71 -18 -8 7
-14 30 -14 51 l0 39 65 0 65 0 0 48 c-1 50 -12 72 -47 90 -27 15 -52 15 -78 0z
m66 -38 c12 -7 19 -21 19 -40 0 -29 -2 -30 -45 -30 -43 0 -45 1 -45 30 0 41
33 60 71 40z"/>
<path d="M2550 371 c-8 -6 -27 -7 -42 -4 l-28 6 0 -137 c0 -129 1 -136 20
-136 19 0 20 7 20 98 0 104 13 142 50 142 37 0 50 -38 50 -142 0 -80 3 -98 15
-98 12 0 15 20 15 119 0 117 -1 120 -26 140 -29 23 -51 26 -74 12z"/>
<path d="M2750 367 c-29 -15 -49 -64 -49 -127 -2 -119 52 -176 132 -139 23 10
47 46 47 69 0 21 -37 9 -48 -15 -8 -17 -20 -25 -36 -25 -31 0 -48 21 -49 62
l-2 33 68 3 67 3 0 45 c0 37 -6 51 -29 75 -32 31 -61 36 -101 16z m74 -43 c9
-8 16 -27 16 -40 0 -24 -3 -25 -47 -22 -44 3 -48 5 -45 27 5 49 45 67 76 35z"/>
<path d="M3310 352 c-53 -54 -30 -117 51 -136 37 -9 45 -15 47 -37 6 -50 -63
-68 -83 -22 -10 23 -45 32 -45 12 0 -16 21 -53 39 -66 25 -19 76 -15 105 8 53
42 21 139 -46 139 -29 0 -58 23 -58 45 0 22 31 46 54 43 11 -2 25 -13 31 -25
12 -28 45 -31 45 -4 0 31 -32 61 -72 68 -32 5 -41 1 -68 -25z"/>
<path d="M3907 373 c-4 -3 -23 -6 -42 -5 l-35 1 2 -182 c3 -164 5 -182 21
-185 14 -3 17 5 17 53 0 52 1 55 19 45 32 -16 66 -12 89 13 20 21 22 34 22
124 0 98 -1 102 -26 122 -27 21 -55 27 -67 14z m41 -45 c8 -8 12 -45 12 -100
0 -86 0 -88 -27 -94 -47 -12 -58 5 -61 93 -2 64 1 84 13 97 19 19 46 21 63 4z"/>
<path d="M1550 234 c0 -127 1 -134 20 -134 19 0 20 7 20 103 0 56 4 107 8 114
4 6 20 15 35 18 50 13 32 33 -28 33 l-55 -1 0 -133z"/>
<path d="M2130 234 c0 -127 1 -134 20 -134 18 0 20 8 22 108 l3 107 32 15 c50
23 41 38 -22 38 l-55 -1 0 -133z"/>
<path d="M2930 256 c0 -101 2 -116 21 -141 19 -23 27 -26 58 -21 20 4 48 6 64
6 l27 0 0 135 c0 128 -1 135 -20 135 -19 0 -20 -7 -20 -101 0 -110 -9 -139
-43 -139 -41 0 -47 17 -47 132 0 101 -1 108 -20 108 -19 0 -20 -7 -20 -114z"/>
<path d="M3160 235 c0 -128 1 -135 20 -135 19 0 20 7 20 103 0 56 4 107 8 114
4 6 20 15 35 18 15 4 27 13 27 21 0 17 -41 19 -58 2 -9 -9 -12 -9 -12 0 0 7
-9 12 -20 12 -19 0 -20 -7 -20 -135z"/>
<path d="M3730 235 c0 -128 1 -135 20 -135 19 0 20 7 20 135 0 128 -1 135 -20
135 -19 0 -20 -7 -20 -135z"/>
<path d="M6306 324 c-38 -7 -97 -23 -132 -34 -53 -18 -64 -25 -64 -44 0 -14
-10 -28 -25 -36 -34 -18 -36 -13 30 -127 1 -1 32 8 70 22 63 21 69 26 70 51 0
38 32 46 195 46 170 0 205 -8 205 -46 0 -24 6 -30 55 -48 30 -11 62 -22 70
-24 11 -4 24 12 43 51 15 30 27 57 27 59 0 2 -13 9 -30 16 -24 10 -29 17 -24
35 5 20 -2 24 -78 48 -152 48 -279 58 -412 31z m309 -23 c50 -10 107 -26 128
-34 l38 -16 -17 -33 c-9 -18 -17 -34 -19 -36 -1 -1 -37 7 -81 19 -130 35 -374
27 -486 -16 -13 -5 -21 2 -32 30 -9 21 -16 38 -16 40 0 5 153 47 198 55 83 14
194 10 287 -9z m-456 -166 c0 -5 -6 1 -14 15 -17 29 -20 9 -4 -22 8 -15 8 -19
0 -14 -6 4 -11 1 -11 -6 0 -7 -8 1 -18 17 -24 40 -34 68 -22 60 6 -3 10 -1 10
6 0 7 7 4 16 -7 14 -18 15 -18 9 6 -4 20 -1 18 14 -10 11 -19 20 -39 20 -45z
m622 47 c-6 -12 -11 -24 -11 -29 1 -4 8 6 17 22 9 17 18 25 21 17 2 -6 8 -9
14 -6 5 3 0 -13 -12 -36 -17 -33 -24 -40 -31 -29 -7 12 -9 12 -9 -1 0 -12 -2
-12 -9 -2 -4 8 -12 13 -17 12 -5 -1 -10 4 -12 12 -3 10 -2 11 6 0 6 -9 13 -1
25 29 9 24 19 40 23 37 3 -4 1 -15 -5 -26z"/>
<path d="M6303 265 c0 -8 4 -15 9 -15 4 0 8 7 8 15 0 8 -4 15 -8 15 -5 0 -9
-7 -9 -15z"/>
<path d="M6565 270 c-4 -6 -12 -7 -18 -4 -7 4 -9 3 -4 -1 4 -5 18 -10 30 -12
16 -2 18 -1 8 6 -11 7 -9 10 10 14 22 4 22 4 2 6 -12 0 -25 -4 -28 -9z"/>
<path d="M6253 248 c-2 -18 0 -20 7 -8 12 18 13 30 2 30 -4 0 -9 -10 -9 -22z"/>
<path d="M6281 254 c0 -11 3 -14 6 -6 3 7 2 16 -1 19 -3 4 -6 -2 -5 -13z"/>
<path d="M6621 262 c-1 -8 -6 -10 -13 -6 -10 5 -10 4 -1 -6 15 -16 28 -8 20
12 -4 11 -6 11 -6 0z"/>
<path d="M6640 258 c0 -7 5 -20 10 -28 8 -13 10 -12 10 3 0 9 0 20 1 24 0 4
-4 9 -10 11 -6 2 -11 -2 -11 -10z"/>
<path d="M6101 175 c0 -5 6 -21 14 -35 8 -14 14 -20 14 -15 0 6 -6 21 -14 35
-8 14 -14 21 -14 15z"/>
<path d="M6791 159 c-7 -12 -10 -23 -8 -26 3 -3 11 5 17 17 15 28 8 35 -9 9z"/>
</g>
</svg>
