<svg width="14" height="12" viewBox="0 0 14 12" fill="none" xmlns="http://www.w3.org/2000/svg">
<path fill-rule="evenodd" clip-rule="evenodd" d="M7.10625 0.251763C7.18586 0.171957 7.28043 0.10864 7.38454 0.0654386C7.48865 0.0222369 7.60026 0 7.71298 0C7.8257 0 7.93731 0.0222369 8.04142 0.0654386C8.14553 0.10864 8.2401 0.171957 8.3197 0.251763L13.4614 5.3935C13.5412 5.4731 13.6046 5.56767 13.6478 5.67178C13.691 5.77589 13.7132 5.88751 13.7132 6.00022C13.7132 6.11294 13.691 6.22456 13.6478 6.32867C13.6046 6.43278 13.5412 6.52735 13.4614 6.60695L8.3197 11.7487C8.15879 11.9096 7.94055 12 7.71298 12C7.48541 12 7.26717 11.9096 7.10625 11.7487C6.94534 11.5878 6.85494 11.3695 6.85494 11.142C6.85494 10.9144 6.94534 10.6961 7.10625 10.5352L11.643 6.00022L7.10625 1.46521C7.02645 1.38561 6.96313 1.29104 6.91993 1.18693C6.87673 1.08282 6.85449 0.971207 6.85449 0.858488C6.85449 0.745768 6.87673 0.634156 6.91993 0.530044C6.96313 0.425932 7.02645 0.331366 7.10625 0.251763Z" fill="black"/>
<path fill-rule="evenodd" clip-rule="evenodd" d="M0 6.00027C0 5.77299 0.0902864 5.55502 0.250997 5.39431C0.411707 5.2336 0.629677 5.14331 0.856956 5.14331H11.9974C12.2247 5.14331 12.4426 5.2336 12.6033 5.39431C12.7641 5.55502 12.8543 5.77299 12.8543 6.00027C12.8543 6.22755 12.7641 6.44552 12.6033 6.60623C12.4426 6.76694 12.2247 6.85722 11.9974 6.85722H0.856956C0.629677 6.85722 0.411707 6.76694 0.250997 6.60623C0.0902864 6.44552 0 6.22755 0 6.00027Z" fill="black"/>
</svg>
